# xmcd
#
# Track frame offsets: 
#        150
#        18122
#        32419
#        42901
#        50589
#        64568
#        79943
#        99528
#        107778
#        121822
#        131722
#        142804
#        157401
#        183070
#        193364
#        205918
#        217309
#        232544
#        242538
#        261223
#        275914
#        284605
#        298059
#        306136
#        319083
#        328496
#        339868
#
# Disc length: 4663 seconds
#
# Revision: 1
# Processed by: cddbd v1.5.2PL0 Copyright (c) Steve Scherf et al.
# Submitted via: ExactAudioCopyFreeDBPlugin 1.0
#
DISCID=9b12351b
DTITLE=Marty Robbins - Gunfighter Ballads And Trail Songs, Vols. 1 and 2
DTITLE=(The Definitive Remastered Edition)
DYEAR=2012
DGENRE=Country
TTITLE0=Big Iron
TTITLE1=Cool Water
TTITLE2=Billy The Kid
TTITLE3=A Hundred And Sixty Acres
TTITLE4=They're Hanging Me Tonight
TTITLE5=The Strawberry Roan
TTITLE6=El Paso
TTITLE7=In The Valley
TTITLE8=The Master's Call
TTITLE9=Running Gun
TTITLE10=The Little Green Valley
TTITLE11=Utah Carol
TTITLE12=San Angelo
TTITLE13=Prairie Fire
TTITLE14=The Streets Of Laredo
TTITLE15=Song Of The Bandit
TTITLE16=I've Got No Use For The Women
TTITLE17=Five Brothers
TTITLE18=Little Joe The Wrangler
TTITLE19=Ride, Cowboy Ride
TTITLE20=This Peaceful Sod
TTITLE21=She Was Young And She Was Pretty
TTITLE22=My Love
TTITLE23=The Hanging Tree
TTITLE24=Saddle Tramp
TTITLE25=The Story Of My Life
TTITLE26=Mean Mama Blues (mono)
EXTD=
EXTT0=
EXTT1=
EXTT2=
EXTT3=
EXTT4=
EXTT5=
EXTT6=
EXTT7=
EXTT8=
EXTT9=
EXTT10=
EXTT11=
EXTT12=
EXTT13=
EXTT14=
EXTT15=
EXTT16=
EXTT17=
EXTT18=
EXTT19=
EXTT20=
EXTT21=
EXTT22=
EXTT23=
EXTT24=
EXTT25=
EXTT26=
PLAYORDER=
